<mxfile host="app.diagrams.net" modified="2023-02-15T10:32:00.925Z" agent="5.0 (Macintosh; Intel Mac OS X 10_15_7) AppleWebKit/537.36 (KHTML, like Gecko) Chrome/109.0.0.0 Safari/537.36" etag="08YTNiQCfLbR5FEAc_6s" version="20.8.16" type="github">
  <diagram name="Page-1" id="0783ab3e-0a74-02c8-0abd-f7b4e66b4bec">
    <mxGraphModel dx="327" dy="601" grid="1" gridSize="10" guides="1" tooltips="1" connect="1" arrows="1" fold="1" page="1" pageScale="1" pageWidth="850" pageHeight="1100" background="none" math="0" shadow="0">
      <root>
        <mxCell id="0" />
        <mxCell id="1" parent="0" />
        <mxCell id="tykqtCvFupaqFvkR6eJO-2" value="素材状态流转" style="swimlane;childLayout=stackLayout;resizeParent=1;resizeParentMax=0;startSize=20;horizontal=0;horizontalStack=1;rounded=1;fillColor=#cce5ff;strokeColor=#36393d;" vertex="1" parent="1">
          <mxGeometry x="950" y="120" width="580" height="400" as="geometry" />
        </mxCell>
        <mxCell id="tykqtCvFupaqFvkR6eJO-3" value="品牌端" style="swimlane;startSize=20;rounded=1;fillColor=#cce5ff;strokeColor=#36393d;" vertex="1" parent="tykqtCvFupaqFvkR6eJO-2">
          <mxGeometry x="20" width="240" height="400" as="geometry" />
        </mxCell>
        <mxCell id="tykqtCvFupaqFvkR6eJO-7" value="&lt;font style=&quot;font-size: 11px;&quot;&gt;开始&lt;/font&gt;" style="ellipse;html=1;shape=startState;rounded=1;fillColor=#cce5ff;strokeColor=#36393d;" vertex="1" parent="tykqtCvFupaqFvkR6eJO-3">
          <mxGeometry x="58" y="45" width="40" height="40" as="geometry" />
        </mxCell>
        <mxCell id="tykqtCvFupaqFvkR6eJO-17" value="结束" style="ellipse;html=1;shape=endState;fillColor=#cce5ff;strokeColor=#36393d;rounded=1;" vertex="1" parent="tykqtCvFupaqFvkR6eJO-3">
          <mxGeometry x="58" y="230" width="40" height="40" as="geometry" />
        </mxCell>
        <mxCell id="tykqtCvFupaqFvkR6eJO-66" value="删除" style="edgeStyle=elbowEdgeStyle;rounded=1;orthogonalLoop=1;jettySize=auto;html=1;exitX=1;exitY=1;exitDx=0;exitDy=0;entryX=0;entryY=0;entryDx=0;entryDy=0;fontSize=11;" edge="1" parent="tykqtCvFupaqFvkR6eJO-3" source="tykqtCvFupaqFvkR6eJO-15" target="tykqtCvFupaqFvkR6eJO-35">
          <mxGeometry relative="1" as="geometry" />
        </mxCell>
        <mxCell id="tykqtCvFupaqFvkR6eJO-15" value="&lt;font style=&quot;font-size: 11px;&quot;&gt;审核驳回&lt;br&gt;&lt;/font&gt;" style="ellipse;whiteSpace=wrap;html=1;aspect=fixed;fontSize=8;rounded=1;fillColor=#cce5ff;strokeColor=#36393d;" vertex="1" parent="tykqtCvFupaqFvkR6eJO-3">
          <mxGeometry x="43" y="130" width="70" height="70" as="geometry" />
        </mxCell>
        <mxCell id="tykqtCvFupaqFvkR6eJO-18" style="edgeStyle=orthogonalEdgeStyle;rounded=1;orthogonalLoop=1;jettySize=auto;html=1;curved=1;" edge="1" parent="tykqtCvFupaqFvkR6eJO-3" source="tykqtCvFupaqFvkR6eJO-15" target="tykqtCvFupaqFvkR6eJO-17">
          <mxGeometry relative="1" as="geometry" />
        </mxCell>
        <mxCell id="tykqtCvFupaqFvkR6eJO-42" style="edgeStyle=orthogonalEdgeStyle;curved=1;rounded=1;orthogonalLoop=1;jettySize=auto;html=1;exitX=0.5;exitY=0;exitDx=0;exitDy=0;entryX=0.5;entryY=1;entryDx=0;entryDy=0;fontSize=11;" edge="1" parent="tykqtCvFupaqFvkR6eJO-3" source="tykqtCvFupaqFvkR6eJO-27" target="tykqtCvFupaqFvkR6eJO-17">
          <mxGeometry relative="1" as="geometry" />
        </mxCell>
        <mxCell id="tykqtCvFupaqFvkR6eJO-71" value="删除" style="edgeStyle=entityRelationEdgeStyle;rounded=1;orthogonalLoop=1;jettySize=auto;html=1;exitX=1;exitY=0;exitDx=0;exitDy=0;entryX=0;entryY=1;entryDx=0;entryDy=0;fontSize=11;" edge="1" parent="tykqtCvFupaqFvkR6eJO-3" source="tykqtCvFupaqFvkR6eJO-27" target="tykqtCvFupaqFvkR6eJO-35">
          <mxGeometry relative="1" as="geometry" />
        </mxCell>
        <mxCell id="tykqtCvFupaqFvkR6eJO-27" value="&lt;font style=&quot;font-size: 11px;&quot;&gt;商家已确认&lt;br&gt;&lt;/font&gt;" style="ellipse;whiteSpace=wrap;html=1;aspect=fixed;fontSize=8;rounded=1;fillColor=#cce5ff;strokeColor=#36393d;" vertex="1" parent="tykqtCvFupaqFvkR6eJO-3">
          <mxGeometry x="43" y="314" width="70" height="70" as="geometry" />
        </mxCell>
        <mxCell id="tykqtCvFupaqFvkR6eJO-58" value="确认" style="edgeStyle=orthogonalEdgeStyle;curved=1;rounded=1;orthogonalLoop=1;jettySize=auto;html=1;exitX=0;exitY=0.5;exitDx=0;exitDy=0;entryX=1;entryY=0.5;entryDx=0;entryDy=0;fontSize=11;" edge="1" parent="tykqtCvFupaqFvkR6eJO-3" source="tykqtCvFupaqFvkR6eJO-23" target="tykqtCvFupaqFvkR6eJO-27">
          <mxGeometry relative="1" as="geometry" />
        </mxCell>
        <mxCell id="tykqtCvFupaqFvkR6eJO-68" style="edgeStyle=orthogonalEdgeStyle;curved=1;rounded=1;orthogonalLoop=1;jettySize=auto;html=1;exitX=0.5;exitY=0;exitDx=0;exitDy=0;entryX=0.5;entryY=1;entryDx=0;entryDy=0;fontSize=11;" edge="1" parent="tykqtCvFupaqFvkR6eJO-3" source="tykqtCvFupaqFvkR6eJO-23" target="tykqtCvFupaqFvkR6eJO-35">
          <mxGeometry relative="1" as="geometry" />
        </mxCell>
        <mxCell id="tykqtCvFupaqFvkR6eJO-69" value="删除" style="edgeLabel;html=1;align=center;verticalAlign=middle;resizable=0;points=[];fontSize=11;" vertex="1" connectable="0" parent="tykqtCvFupaqFvkR6eJO-68">
          <mxGeometry x="-0.164" relative="1" as="geometry">
            <mxPoint as="offset" />
          </mxGeometry>
        </mxCell>
        <mxCell id="tykqtCvFupaqFvkR6eJO-23" value="&lt;font style=&quot;font-size: 11px;&quot;&gt;待商家确认&lt;br&gt;&lt;/font&gt;" style="ellipse;whiteSpace=wrap;html=1;aspect=fixed;fontSize=8;rounded=1;fillColor=#cce5ff;strokeColor=#36393d;" vertex="1" parent="tykqtCvFupaqFvkR6eJO-3">
          <mxGeometry x="151" y="314" width="70" height="70" as="geometry" />
        </mxCell>
        <mxCell id="tykqtCvFupaqFvkR6eJO-74" style="edgeStyle=none;rounded=1;orthogonalLoop=1;jettySize=auto;html=1;exitX=0;exitY=0.5;exitDx=0;exitDy=0;entryX=1;entryY=0.5;entryDx=0;entryDy=0;fontSize=11;" edge="1" parent="tykqtCvFupaqFvkR6eJO-3" source="tykqtCvFupaqFvkR6eJO-35" target="tykqtCvFupaqFvkR6eJO-17">
          <mxGeometry relative="1" as="geometry" />
        </mxCell>
        <mxCell id="tykqtCvFupaqFvkR6eJO-35" value="&lt;font style=&quot;font-size: 11px;&quot;&gt;已删除&lt;br&gt;&lt;/font&gt;" style="ellipse;whiteSpace=wrap;html=1;aspect=fixed;fontSize=8;rounded=1;fillColor=#cce5ff;strokeColor=#36393d;" vertex="1" parent="tykqtCvFupaqFvkR6eJO-3">
          <mxGeometry x="151" y="215" width="70" height="70" as="geometry" />
        </mxCell>
        <mxCell id="tykqtCvFupaqFvkR6eJO-4" value="运营端" style="swimlane;startSize=20;rounded=1;fillColor=#cce5ff;strokeColor=#36393d;" vertex="1" parent="tykqtCvFupaqFvkR6eJO-2">
          <mxGeometry x="260" width="160" height="400" as="geometry" />
        </mxCell>
        <mxCell id="tykqtCvFupaqFvkR6eJO-6" value="&lt;font style=&quot;font-size: 11px;&quot;&gt;审核中-&lt;br&gt;待运营审核&lt;br&gt;&lt;/font&gt;" style="ellipse;whiteSpace=wrap;html=1;aspect=fixed;fontSize=8;rounded=1;fillColor=#e51400;strokeColor=#B20000;fontColor=#ffffff;" vertex="1" parent="tykqtCvFupaqFvkR6eJO-4">
          <mxGeometry x="45" y="30" width="70" height="70" as="geometry" />
        </mxCell>
        <mxCell id="tykqtCvFupaqFvkR6eJO-37" value="&lt;font style=&quot;font-size: 11px;&quot;&gt;审核中-&lt;br&gt;商家疑议&lt;br&gt;&lt;/font&gt;" style="ellipse;whiteSpace=wrap;html=1;aspect=fixed;fontSize=8;rounded=1;fillColor=#cce5ff;strokeColor=#36393d;" vertex="1" parent="tykqtCvFupaqFvkR6eJO-4">
          <mxGeometry x="45" y="314" width="70" height="70" as="geometry" />
        </mxCell>
        <mxCell id="tykqtCvFupaqFvkR6eJO-13" value="提报" style="edgeStyle=entityRelationEdgeStyle;rounded=1;orthogonalLoop=1;jettySize=auto;html=1;exitX=1;exitY=0.5;exitDx=0;exitDy=0;fontSize=11;fillColor=#cce5ff;strokeColor=#36393d;" edge="1" parent="tykqtCvFupaqFvkR6eJO-2" source="tykqtCvFupaqFvkR6eJO-7" target="tykqtCvFupaqFvkR6eJO-6">
          <mxGeometry relative="1" as="geometry" />
        </mxCell>
        <mxCell id="tykqtCvFupaqFvkR6eJO-5" value="OA" style="swimlane;startSize=20;rounded=1;fillColor=#cce5ff;strokeColor=#36393d;" vertex="1" parent="tykqtCvFupaqFvkR6eJO-2">
          <mxGeometry x="420" width="160" height="400" as="geometry" />
        </mxCell>
        <mxCell id="tykqtCvFupaqFvkR6eJO-11" value="&lt;font style=&quot;font-size: 11px;&quot;&gt;审核中-&lt;br&gt;待OA审核&lt;br&gt;&lt;/font&gt;" style="ellipse;whiteSpace=wrap;html=1;aspect=fixed;fontSize=8;rounded=1;fillColor=#cce5ff;strokeColor=#36393d;" vertex="1" parent="tykqtCvFupaqFvkR6eJO-5">
          <mxGeometry x="45" y="130" width="70" height="70" as="geometry" />
        </mxCell>
        <mxCell id="tykqtCvFupaqFvkR6eJO-47" style="edgeStyle=orthogonalEdgeStyle;curved=1;rounded=1;orthogonalLoop=1;jettySize=auto;html=1;entryX=0;entryY=0.5;entryDx=0;entryDy=0;fontSize=11;" edge="1" parent="tykqtCvFupaqFvkR6eJO-2" source="tykqtCvFupaqFvkR6eJO-23" target="tykqtCvFupaqFvkR6eJO-37">
          <mxGeometry relative="1" as="geometry" />
        </mxCell>
        <mxCell id="tykqtCvFupaqFvkR6eJO-78" value="疑议" style="edgeLabel;html=1;align=center;verticalAlign=middle;resizable=0;points=[];fontSize=11;" vertex="1" connectable="0" parent="tykqtCvFupaqFvkR6eJO-47">
          <mxGeometry x="-0.0089" y="1" relative="1" as="geometry">
            <mxPoint as="offset" />
          </mxGeometry>
        </mxCell>
        <mxCell id="tykqtCvFupaqFvkR6eJO-52" style="edgeStyle=orthogonalEdgeStyle;curved=1;rounded=1;orthogonalLoop=1;jettySize=auto;html=1;exitX=1;exitY=0.5;exitDx=0;exitDy=0;fontSize=11;" edge="1" parent="tykqtCvFupaqFvkR6eJO-2" source="tykqtCvFupaqFvkR6eJO-6" target="tykqtCvFupaqFvkR6eJO-11">
          <mxGeometry relative="1" as="geometry" />
        </mxCell>
        <mxCell id="tykqtCvFupaqFvkR6eJO-54" value="通过" style="edgeLabel;html=1;align=center;verticalAlign=middle;resizable=0;points=[];fontSize=11;" vertex="1" connectable="0" parent="tykqtCvFupaqFvkR6eJO-52">
          <mxGeometry x="-0.2091" y="-7" relative="1" as="geometry">
            <mxPoint as="offset" />
          </mxGeometry>
        </mxCell>
        <mxCell id="tykqtCvFupaqFvkR6eJO-55" style="edgeStyle=orthogonalEdgeStyle;curved=1;rounded=1;orthogonalLoop=1;jettySize=auto;html=1;exitX=0;exitY=0.5;exitDx=0;exitDy=0;fontSize=11;" edge="1" parent="tykqtCvFupaqFvkR6eJO-2" source="tykqtCvFupaqFvkR6eJO-11" target="tykqtCvFupaqFvkR6eJO-15">
          <mxGeometry relative="1" as="geometry" />
        </mxCell>
        <mxCell id="tykqtCvFupaqFvkR6eJO-56" value="驳回" style="edgeLabel;html=1;align=center;verticalAlign=middle;resizable=0;points=[];fontSize=11;" vertex="1" connectable="0" parent="tykqtCvFupaqFvkR6eJO-55">
          <mxGeometry x="-0.0806" relative="1" as="geometry">
            <mxPoint as="offset" />
          </mxGeometry>
        </mxCell>
        <mxCell id="tykqtCvFupaqFvkR6eJO-59" style="edgeStyle=orthogonalEdgeStyle;curved=1;rounded=1;orthogonalLoop=1;jettySize=auto;html=1;exitX=1;exitY=0.5;exitDx=0;exitDy=0;entryX=0.5;entryY=1;entryDx=0;entryDy=0;fontSize=11;" edge="1" parent="tykqtCvFupaqFvkR6eJO-2" source="tykqtCvFupaqFvkR6eJO-37" target="tykqtCvFupaqFvkR6eJO-11">
          <mxGeometry relative="1" as="geometry" />
        </mxCell>
        <mxCell id="tykqtCvFupaqFvkR6eJO-60" value="通过" style="edgeLabel;html=1;align=center;verticalAlign=middle;resizable=0;points=[];fontSize=11;" vertex="1" connectable="0" parent="tykqtCvFupaqFvkR6eJO-59">
          <mxGeometry x="0.3353" y="16" relative="1" as="geometry">
            <mxPoint as="offset" />
          </mxGeometry>
        </mxCell>
        <mxCell id="tykqtCvFupaqFvkR6eJO-64" style="rounded=1;orthogonalLoop=1;jettySize=auto;html=1;exitX=0.098;exitY=0.839;exitDx=0;exitDy=0;entryX=0.5;entryY=0;entryDx=0;entryDy=0;fontSize=11;edgeStyle=elbowEdgeStyle;elbow=vertical;exitPerimeter=0;" edge="1" parent="tykqtCvFupaqFvkR6eJO-2" source="tykqtCvFupaqFvkR6eJO-6" target="tykqtCvFupaqFvkR6eJO-15">
          <mxGeometry relative="1" as="geometry">
            <Array as="points">
              <mxPoint x="200" y="90" />
            </Array>
          </mxGeometry>
        </mxCell>
        <mxCell id="tykqtCvFupaqFvkR6eJO-65" value="驳回" style="edgeLabel;html=1;align=center;verticalAlign=middle;resizable=0;points=[];fontSize=11;" vertex="1" connectable="0" parent="tykqtCvFupaqFvkR6eJO-64">
          <mxGeometry x="-0.1561" relative="1" as="geometry">
            <mxPoint as="offset" />
          </mxGeometry>
        </mxCell>
        <mxCell id="tykqtCvFupaqFvkR6eJO-75" style="edgeStyle=none;rounded=1;orthogonalLoop=1;jettySize=auto;html=1;exitX=0;exitY=1;exitDx=0;exitDy=0;entryX=1;entryY=0;entryDx=0;entryDy=0;fontSize=11;" edge="1" parent="tykqtCvFupaqFvkR6eJO-2" source="tykqtCvFupaqFvkR6eJO-11" target="tykqtCvFupaqFvkR6eJO-23">
          <mxGeometry relative="1" as="geometry" />
        </mxCell>
        <mxCell id="tykqtCvFupaqFvkR6eJO-77" value="通过" style="edgeLabel;html=1;align=center;verticalAlign=middle;resizable=0;points=[];fontSize=11;" vertex="1" connectable="0" parent="tykqtCvFupaqFvkR6eJO-75">
          <mxGeometry x="-0.0654" y="-1" relative="1" as="geometry">
            <mxPoint as="offset" />
          </mxGeometry>
        </mxCell>
      </root>
    </mxGraphModel>
  </diagram>
</mxfile>
